<mxfile>
    <diagram id="SD_AFLWXw-Bv2uvGbzyp" name="Page-1">
        <mxGraphModel dx="3264" dy="1763" grid="1" gridSize="10" guides="1" tooltips="1" connect="1" arrows="1" fold="1" page="1" pageScale="1" pageWidth="827" pageHeight="1169" math="0" shadow="0">
            <root>
                <mxCell id="0"/>
                <mxCell id="1" parent="0"/>
                <mxCell id="Z8cWY3NdeDw0EiwUUbBT-2" value="" style="endArrow=none;html=1;strokeWidth=5;" parent="1" edge="1">
                    <mxGeometry width="50" height="50" relative="1" as="geometry">
                        <mxPoint x="-480" y="1170" as="sourcePoint"/>
                        <mxPoint x="-582" y="1012" as="targetPoint"/>
                    </mxGeometry>
                </mxCell>
                <mxCell id="Z8cWY3NdeDw0EiwUUbBT-3" value="" style="endArrow=none;html=1;strokeWidth=5;" parent="1" edge="1">
                    <mxGeometry width="50" height="50" relative="1" as="geometry">
                        <mxPoint x="-723" y="1342" as="sourcePoint"/>
                        <mxPoint x="-346" y="1065" as="targetPoint"/>
                        <Array as="points">
                            <mxPoint x="-460" y="1160"/>
                        </Array>
                    </mxGeometry>
                </mxCell>
                <mxCell id="Z8cWY3NdeDw0EiwUUbBT-4" value="" style="endArrow=none;html=1;strokeWidth=5;" parent="1" edge="1">
                    <mxGeometry width="50" height="50" relative="1" as="geometry">
                        <mxPoint x="-347" y="1068" as="sourcePoint"/>
                        <mxPoint x="-500" y="830" as="targetPoint"/>
                    </mxGeometry>
                </mxCell>
                <mxCell id="Z8cWY3NdeDw0EiwUUbBT-5" value="" style="endArrow=none;html=1;strokeWidth=5;exitX=0.5;exitY=0;exitDx=0;exitDy=0;" parent="1" edge="1" source="17">
                    <mxGeometry width="50" height="50" relative="1" as="geometry">
                        <mxPoint x="-433" y="1250" as="sourcePoint"/>
                        <mxPoint x="-477" y="1173" as="targetPoint"/>
                    </mxGeometry>
                </mxCell>
                <mxCell id="Z8cWY3NdeDw0EiwUUbBT-6" value="" style="verticalLabelPosition=bottom;align=center;html=1;verticalAlign=top;pointerEvents=1;dashed=0;shape=mxgraph.pid2valves.valve;valveType=gate;defState=closed;strokeWidth=1;fillColor=none;fontSize=17;rotation=-30;strokeColor=#0000FF;" parent="1" vertex="1">
                    <mxGeometry x="-463.54" y="1211" width="37.54" height="22.5" as="geometry"/>
                </mxCell>
                <mxCell id="Z8cWY3NdeDw0EiwUUbBT-31" value="Actualizado: 04/05/2021" style="text;html=1;strokeColor=none;fillColor=none;align=center;verticalAlign=middle;whiteSpace=wrap;rounded=0;fontSize=50;fontStyle=1" parent="1" vertex="1">
                    <mxGeometry x="887" y="2110" width="590" height="20" as="geometry"/>
                </mxCell>
                <mxCell id="Z8cWY3NdeDw0EiwUUbBT-32" value="&lt;font style=&quot;font-size: 79px&quot;&gt;SECTOR - VII&lt;/font&gt;" style="text;html=1;strokeColor=none;fillColor=none;align=center;verticalAlign=middle;whiteSpace=wrap;rounded=0;fontSize=50;fontStyle=1" parent="1" vertex="1">
                    <mxGeometry x="918" y="2027" width="520" height="20" as="geometry"/>
                </mxCell>
                <mxCell id="Z8cWY3NdeDw0EiwUUbBT-33" value="&lt;font style=&quot;font-size: 79px&quot;&gt;SECTOR - VI&lt;/font&gt;" style="text;html=1;strokeColor=none;fillColor=none;align=center;verticalAlign=middle;whiteSpace=wrap;rounded=0;fontSize=50;fontStyle=1" parent="1" vertex="1">
                    <mxGeometry x="-593" y="228" width="520" height="20" as="geometry"/>
                </mxCell>
                <mxCell id="Z8cWY3NdeDw0EiwUUbBT-34" value="Actualizado: 04/05/2021" style="text;html=1;strokeColor=none;fillColor=none;align=center;verticalAlign=middle;whiteSpace=wrap;rounded=0;fontSize=50;fontStyle=1" parent="1" vertex="1">
                    <mxGeometry x="-637" y="310" width="590" height="20" as="geometry"/>
                </mxCell>
                <mxCell id="Z8cWY3NdeDw0EiwUUbBT-35" value="&lt;b style=&quot;font-size: 33px;&quot;&gt;402&lt;/b&gt;" style="text;html=1;strokeColor=none;fillColor=none;align=center;verticalAlign=middle;whiteSpace=wrap;rounded=0;fontSize=33;" parent="1" vertex="1">
                    <mxGeometry x="-515" y="890" width="40" height="20" as="geometry"/>
                </mxCell>
                <mxCell id="Z8cWY3NdeDw0EiwUUbBT-36" value="403" style="text;html=1;strokeColor=none;fillColor=none;align=center;verticalAlign=middle;whiteSpace=wrap;rounded=0;fontSize=33;fontStyle=1" parent="1" vertex="1">
                    <mxGeometry x="-466" y="843" width="40" height="20" as="geometry"/>
                </mxCell>
                <mxCell id="Z8cWY3NdeDw0EiwUUbBT-37" value="404" style="text;html=1;strokeColor=none;fillColor=none;align=center;verticalAlign=middle;whiteSpace=wrap;rounded=0;fontSize=33;fontStyle=1" parent="1" vertex="1">
                    <mxGeometry x="-429" y="895" width="40" height="20" as="geometry"/>
                </mxCell>
                <mxCell id="Z8cWY3NdeDw0EiwUUbBT-39" value="406" style="text;html=1;strokeColor=none;fillColor=none;align=center;verticalAlign=middle;whiteSpace=wrap;rounded=0;fontSize=33;fontStyle=1" parent="1" vertex="1">
                    <mxGeometry x="-400" y="927" width="40" height="20" as="geometry"/>
                </mxCell>
                <mxCell id="Z8cWY3NdeDw0EiwUUbBT-41" value="405" style="text;html=1;strokeColor=none;fillColor=none;align=center;verticalAlign=middle;whiteSpace=wrap;rounded=0;fontSize=33;fontStyle=1" parent="1" vertex="1">
                    <mxGeometry x="-463.54" y="980" width="40" height="20" as="geometry"/>
                </mxCell>
                <mxCell id="Z8cWY3NdeDw0EiwUUbBT-42" value="408" style="text;html=1;strokeColor=none;fillColor=none;align=center;verticalAlign=middle;whiteSpace=wrap;rounded=0;fontSize=33;fontStyle=1" parent="1" vertex="1">
                    <mxGeometry x="-440" y="1080" width="40" height="20" as="geometry"/>
                </mxCell>
                <mxCell id="Z8cWY3NdeDw0EiwUUbBT-43" value="411" style="text;html=1;strokeColor=none;fillColor=none;align=center;verticalAlign=middle;whiteSpace=wrap;rounded=0;fontSize=33;fontStyle=1" parent="1" vertex="1">
                    <mxGeometry x="-570" y="986" width="40" height="20" as="geometry"/>
                </mxCell>
                <mxCell id="Z8cWY3NdeDw0EiwUUbBT-44" value="420" style="text;html=1;strokeColor=none;fillColor=none;align=center;verticalAlign=middle;whiteSpace=wrap;rounded=0;fontSize=33;fontStyle=1" parent="1" vertex="1">
                    <mxGeometry x="-540" y="1040" width="40" height="20" as="geometry"/>
                </mxCell>
                <mxCell id="Z8cWY3NdeDw0EiwUUbBT-45" value="414" style="text;html=1;strokeColor=none;fillColor=none;align=center;verticalAlign=middle;whiteSpace=wrap;rounded=0;fontSize=33;fontStyle=1" parent="1" vertex="1">
                    <mxGeometry x="-640" y="1220" width="40" height="20" as="geometry"/>
                </mxCell>
                <mxCell id="Z8cWY3NdeDw0EiwUUbBT-46" value="415" style="text;html=1;strokeColor=none;fillColor=none;align=center;verticalAlign=middle;whiteSpace=wrap;rounded=0;fontSize=33;fontStyle=1" parent="1" vertex="1">
                    <mxGeometry x="-687" y="1251" width="40" height="20" as="geometry"/>
                </mxCell>
                <mxCell id="Z8cWY3NdeDw0EiwUUbBT-47" value="416" style="text;html=1;strokeColor=none;fillColor=none;align=center;verticalAlign=middle;whiteSpace=wrap;rounded=0;fontSize=33;fontStyle=1" parent="1" vertex="1">
                    <mxGeometry x="-733" y="1288" width="40" height="20" as="geometry"/>
                </mxCell>
                <mxCell id="Z8cWY3NdeDw0EiwUUbBT-48" value="417" style="text;html=1;strokeColor=none;fillColor=none;align=center;verticalAlign=middle;whiteSpace=wrap;rounded=0;fontSize=33;fontStyle=1" parent="1" vertex="1">
                    <mxGeometry x="-780" y="1320" width="40" height="20" as="geometry"/>
                </mxCell>
                <mxCell id="Z8cWY3NdeDw0EiwUUbBT-49" value="" style="endArrow=none;html=1;strokeWidth=5;fontSize=33;entryX=0.5;entryY=1;entryDx=0;entryDy=0;" parent="1" edge="1" target="17">
                    <mxGeometry width="50" height="50" relative="1" as="geometry">
                        <mxPoint x="616" y="204" as="sourcePoint"/>
                        <mxPoint x="-419" y="1310" as="targetPoint"/>
                        <Array as="points">
                            <mxPoint x="550" y="440"/>
                            <mxPoint x="470" y="650"/>
                            <mxPoint x="450" y="800"/>
                            <mxPoint x="410" y="1080"/>
                            <mxPoint x="410" y="1240"/>
                            <mxPoint x="90" y="1240"/>
                            <mxPoint x="90" y="1320"/>
                            <mxPoint x="87" y="1360"/>
                            <mxPoint x="67" y="1430"/>
                            <mxPoint x="57" y="1510"/>
                            <mxPoint x="67" y="1580"/>
                            <mxPoint x="57" y="1600"/>
                            <mxPoint x="-263" y="1540"/>
                            <mxPoint x="-283" y="1520"/>
                            <mxPoint x="-323" y="1530"/>
                            <mxPoint x="-456" y="1510"/>
                        </Array>
                    </mxGeometry>
                </mxCell>
                <mxCell id="Z8cWY3NdeDw0EiwUUbBT-50" value="" style="endArrow=none;html=1;strokeWidth=5;fontSize=33;" parent="1" edge="1">
                    <mxGeometry width="50" height="50" relative="1" as="geometry">
                        <mxPoint x="608" y="240" as="sourcePoint"/>
                        <mxPoint x="732" y="235" as="targetPoint"/>
                    </mxGeometry>
                </mxCell>
                <mxCell id="Z8cWY3NdeDw0EiwUUbBT-51" value="" style="endArrow=none;html=1;strokeWidth=5;fontSize=33;" parent="1" edge="1">
                    <mxGeometry width="50" height="50" relative="1" as="geometry">
                        <mxPoint x="87" y="1360" as="sourcePoint"/>
                        <mxPoint x="440" y="1360" as="targetPoint"/>
                    </mxGeometry>
                </mxCell>
                <mxCell id="Z8cWY3NdeDw0EiwUUbBT-52" value="" style="verticalLabelPosition=bottom;align=center;html=1;verticalAlign=top;pointerEvents=1;dashed=0;shape=mxgraph.pid2valves.valve;valveType=gate;defState=closed;strokeWidth=1;fillColor=none;fontSize=17;rotation=338;strokeColor=#0000FF;" parent="1" vertex="1">
                    <mxGeometry x="56.00000000000001" y="1118.75" width="37.54" height="22.5" as="geometry"/>
                </mxCell>
                <mxCell id="Z8cWY3NdeDw0EiwUUbBT-53" value="" style="verticalLabelPosition=bottom;align=center;html=1;verticalAlign=top;pointerEvents=1;dashed=0;shape=mxgraph.pid2valves.valve;valveType=gate;defState=closed;strokeWidth=1;fillColor=none;fontSize=17;rotation=-90;" parent="1" vertex="1">
                    <mxGeometry x="100" y="1350" width="37.54" height="22.5" as="geometry"/>
                </mxCell>
                <mxCell id="Z8cWY3NdeDw0EiwUUbBT-54" value="" style="verticalLabelPosition=bottom;align=center;html=1;verticalAlign=top;pointerEvents=1;dashed=0;shape=mxgraph.pid2valves.valve;valveType=gate;defState=closed;strokeWidth=1;fillColor=none;fontSize=17;rotation=-90;" parent="1" vertex="1">
                    <mxGeometry x="93.46" y="1229" width="37.54" height="22.5" as="geometry"/>
                </mxCell>
                <mxCell id="Z8cWY3NdeDw0EiwUUbBT-55" value="" style="verticalLabelPosition=bottom;align=center;html=1;verticalAlign=top;pointerEvents=1;dashed=0;shape=mxgraph.pid2valves.valve;valveType=gate;defState=closed;strokeWidth=1;fillColor=none;fontSize=17;rotation=-90;strokeColor=#0000FF;" parent="1" vertex="1">
                    <mxGeometry x="477" y="641" width="37.54" height="22.5" as="geometry"/>
                </mxCell>
                <mxCell id="Z8cWY3NdeDw0EiwUUbBT-56" value="" style="verticalLabelPosition=bottom;align=center;html=1;verticalAlign=top;pointerEvents=1;dashed=0;shape=mxgraph.pid2valves.valve;valveType=gate;defState=closed;strokeWidth=1;fillColor=none;fontSize=17;rotation=-90;strokeColor=#0000FF;" parent="1" vertex="1">
                    <mxGeometry x="-256.77" y="1398.25" width="37.54" height="22.5" as="geometry"/>
                </mxCell>
                <mxCell id="Z8cWY3NdeDw0EiwUUbBT-57" value="" style="verticalLabelPosition=bottom;align=center;html=1;verticalAlign=top;pointerEvents=1;dashed=0;shape=mxgraph.pid2valves.valve;valveType=gate;defState=closed;strokeWidth=1;fillColor=none;fontSize=17;rotation=15;strokeColor=#0000FF;" parent="1" vertex="1">
                    <mxGeometry x="-299" y="1492" width="37.54" height="22.5" as="geometry"/>
                </mxCell>
                <mxCell id="Z8cWY3NdeDw0EiwUUbBT-60" value="" style="verticalLabelPosition=bottom;align=center;html=1;verticalAlign=top;pointerEvents=1;dashed=0;shape=mxgraph.pid2valves.valve;valveType=gate;defState=closed;strokeWidth=1;fillColor=none;fontSize=17;rotation=-90;" parent="1" vertex="1">
                    <mxGeometry x="903.54" y="722" width="37.54" height="22.5" as="geometry"/>
                </mxCell>
                <mxCell id="Z8cWY3NdeDw0EiwUUbBT-62" value="" style="verticalLabelPosition=bottom;align=center;html=1;verticalAlign=top;pointerEvents=1;dashed=0;shape=mxgraph.pid2valves.valve;valveType=gate;defState=closed;strokeWidth=1;fillColor=none;fontSize=17;rotation=-90;strokeColor=#0000FF;" parent="1" vertex="1">
                    <mxGeometry x="589" y="3079" width="37.54" height="22.5" as="geometry"/>
                </mxCell>
                <mxCell id="Z8cWY3NdeDw0EiwUUbBT-63" value="" style="verticalLabelPosition=bottom;align=center;html=1;verticalAlign=top;pointerEvents=1;dashed=0;shape=mxgraph.pid2valves.valve;valveType=gate;defState=closed;strokeWidth=1;fillColor=none;fontSize=17;rotation=-90;" parent="1" vertex="1">
                    <mxGeometry x="70" y="2510" width="37.54" height="22.5" as="geometry"/>
                </mxCell>
                <mxCell id="Z8cWY3NdeDw0EiwUUbBT-64" value="" style="verticalLabelPosition=bottom;align=center;html=1;verticalAlign=top;pointerEvents=1;dashed=0;shape=mxgraph.pid2valves.valve;valveType=gate;defState=closed;strokeWidth=1;fillColor=none;fontSize=17;rotation=15;" parent="1" vertex="1">
                    <mxGeometry x="40" y="2477" width="37.54" height="22.5" as="geometry"/>
                </mxCell>
                <mxCell id="Z8cWY3NdeDw0EiwUUbBT-65" value="" style="verticalLabelPosition=bottom;align=center;html=1;verticalAlign=top;pointerEvents=1;dashed=0;shape=mxgraph.pid2valves.valve;valveType=gate;defState=closed;strokeWidth=1;fillColor=none;fontSize=17;rotation=-15;" parent="1" vertex="1">
                    <mxGeometry x="320" y="2532.5" width="37.54" height="22.5" as="geometry"/>
                </mxCell>
                <mxCell id="Z8cWY3NdeDw0EiwUUbBT-66" value="" style="verticalLabelPosition=bottom;align=center;html=1;verticalAlign=top;pointerEvents=1;dashed=0;shape=mxgraph.pid2valves.valve;valveType=gate;defState=closed;strokeWidth=1;fillColor=none;fontSize=17;rotation=-100;strokeColor=#0000FF;" parent="1" vertex="1">
                    <mxGeometry x="380" y="2501.5" width="37.54" height="22.5" as="geometry"/>
                </mxCell>
                <mxCell id="Z8cWY3NdeDw0EiwUUbBT-68" value="" style="endArrow=none;html=1;strokeWidth=5;fontSize=33;" parent="1" edge="1">
                    <mxGeometry width="50" height="50" relative="1" as="geometry">
                        <mxPoint x="-284" y="1520" as="sourcePoint"/>
                        <mxPoint x="-43" y="714" as="targetPoint"/>
                        <Array as="points">
                            <mxPoint x="-160" y="850"/>
                            <mxPoint x="-100" y="820"/>
                            <mxPoint x="-70" y="780"/>
                            <mxPoint x="-50" y="750"/>
                        </Array>
                    </mxGeometry>
                </mxCell>
                <mxCell id="Z8cWY3NdeDw0EiwUUbBT-69" value="210" style="text;html=1;strokeColor=none;fillColor=none;align=center;verticalAlign=middle;whiteSpace=wrap;rounded=0;fontSize=33;fontStyle=1" parent="1" vertex="1">
                    <mxGeometry x="-34" y="683.5" width="40" height="20" as="geometry"/>
                </mxCell>
                <mxCell id="Z8cWY3NdeDw0EiwUUbBT-70" value="209" style="text;html=1;strokeColor=none;fillColor=none;align=center;verticalAlign=middle;whiteSpace=wrap;rounded=0;fontSize=33;fontStyle=1" parent="1" vertex="1">
                    <mxGeometry x="-120" y="750" width="40" height="20" as="geometry"/>
                </mxCell>
                <mxCell id="Z8cWY3NdeDw0EiwUUbBT-71" value="208" style="text;html=1;strokeColor=none;fillColor=none;align=center;verticalAlign=middle;whiteSpace=wrap;rounded=0;fontSize=33;fontStyle=1" parent="1" vertex="1">
                    <mxGeometry x="-157" y="798" width="40" height="20" as="geometry"/>
                </mxCell>
                <mxCell id="Z8cWY3NdeDw0EiwUUbBT-72" value="207" style="text;html=1;strokeColor=none;fillColor=none;align=center;verticalAlign=middle;whiteSpace=wrap;rounded=0;fontSize=33;fontStyle=1" parent="1" vertex="1">
                    <mxGeometry x="-130" y="850" width="40" height="20" as="geometry"/>
                </mxCell>
                <mxCell id="Z8cWY3NdeDw0EiwUUbBT-73" value="222" style="text;html=1;strokeColor=none;fillColor=none;align=center;verticalAlign=middle;whiteSpace=wrap;rounded=0;fontSize=33;fontStyle=1" parent="1" vertex="1">
                    <mxGeometry x="-232" y="907" width="40" height="20" as="geometry"/>
                </mxCell>
                <mxCell id="Z8cWY3NdeDw0EiwUUbBT-74" value="205" style="text;html=1;strokeColor=none;fillColor=none;align=center;verticalAlign=middle;whiteSpace=wrap;rounded=0;fontSize=33;fontStyle=1" parent="1" vertex="1">
                    <mxGeometry x="-255" y="1040" width="40" height="20" as="geometry"/>
                </mxCell>
                <mxCell id="Z8cWY3NdeDw0EiwUUbBT-75" value="206" style="text;html=1;strokeColor=none;fillColor=none;align=center;verticalAlign=middle;whiteSpace=wrap;rounded=0;fontSize=33;fontStyle=1" parent="1" vertex="1">
                    <mxGeometry x="-257" y="1068" width="40" height="20" as="geometry"/>
                </mxCell>
                <mxCell id="Z8cWY3NdeDw0EiwUUbBT-76" value="204" style="text;html=1;strokeColor=none;fillColor=none;align=center;verticalAlign=middle;whiteSpace=wrap;rounded=0;fontSize=33;fontStyle=1" parent="1" vertex="1">
                    <mxGeometry x="-197" y="1117" width="40" height="20" as="geometry"/>
                </mxCell>
                <mxCell id="Z8cWY3NdeDw0EiwUUbBT-77" value="203" style="text;html=1;strokeColor=none;fillColor=none;align=center;verticalAlign=middle;whiteSpace=wrap;rounded=0;fontSize=33;fontStyle=1" parent="1" vertex="1">
                    <mxGeometry x="-215" y="1268" width="40" height="20" as="geometry"/>
                </mxCell>
                <mxCell id="Z8cWY3NdeDw0EiwUUbBT-78" value="223" style="text;html=1;strokeColor=none;fillColor=none;align=center;verticalAlign=middle;whiteSpace=wrap;rounded=0;fontSize=33;fontStyle=1" parent="1" vertex="1">
                    <mxGeometry x="-222.46" y="1326" width="40" height="20" as="geometry"/>
                </mxCell>
                <mxCell id="Z8cWY3NdeDw0EiwUUbBT-79" value="224" style="text;html=1;strokeColor=none;fillColor=none;align=center;verticalAlign=middle;whiteSpace=wrap;rounded=0;fontSize=33;fontStyle=1" parent="1" vertex="1">
                    <mxGeometry x="-297" y="1300" width="40" height="20" as="geometry"/>
                </mxCell>
                <mxCell id="Z8cWY3NdeDw0EiwUUbBT-80" value="216" style="text;html=1;strokeColor=none;fillColor=none;align=center;verticalAlign=middle;whiteSpace=wrap;rounded=0;fontSize=33;fontStyle=1" parent="1" vertex="1">
                    <mxGeometry x="-210" y="1420.75" width="40" height="20" as="geometry"/>
                </mxCell>
                <mxCell id="Z8cWY3NdeDw0EiwUUbBT-81" value="" style="endArrow=none;html=1;strokeWidth=5;fontSize=33;" parent="1" edge="1">
                    <mxGeometry width="50" height="50" relative="1" as="geometry">
                        <mxPoint x="-263" y="1405" as="sourcePoint"/>
                        <mxPoint x="-302" y="1385" as="targetPoint"/>
                    </mxGeometry>
                </mxCell>
                <mxCell id="Z8cWY3NdeDw0EiwUUbBT-82" value="" style="endArrow=none;html=1;strokeWidth=5;fontSize=33;" parent="1" edge="1">
                    <mxGeometry width="50" height="50" relative="1" as="geometry">
                        <mxPoint x="-260" y="1410" as="sourcePoint"/>
                        <mxPoint x="-50" y="998.6206896551724" as="targetPoint"/>
                        <Array as="points">
                            <mxPoint x="-110" y="1410"/>
                            <mxPoint x="-70" y="1230"/>
                            <mxPoint x="-50" y="1060"/>
                        </Array>
                    </mxGeometry>
                </mxCell>
                <mxCell id="Z8cWY3NdeDw0EiwUUbBT-83" value="" style="endArrow=none;html=1;strokeWidth=5;fontSize=33;" parent="1" edge="1">
                    <mxGeometry width="50" height="50" relative="1" as="geometry">
                        <mxPoint x="-182" y="953" as="sourcePoint"/>
                        <mxPoint x="-152" y="1183" as="targetPoint"/>
                        <Array as="points">
                            <mxPoint x="-112" y="963"/>
                        </Array>
                    </mxGeometry>
                </mxCell>
                <mxCell id="Z8cWY3NdeDw0EiwUUbBT-84" value="211" style="text;html=1;strokeColor=none;fillColor=none;align=center;verticalAlign=middle;whiteSpace=wrap;rounded=0;fontSize=33;fontStyle=1" parent="1" vertex="1">
                    <mxGeometry x="-170" y="966" width="40" height="20" as="geometry"/>
                </mxCell>
                <mxCell id="Z8cWY3NdeDw0EiwUUbBT-85" value="212" style="text;html=1;strokeColor=none;fillColor=none;align=center;verticalAlign=middle;whiteSpace=wrap;rounded=0;fontSize=33;fontStyle=1" parent="1" vertex="1">
                    <mxGeometry x="-113" y="935" width="40" height="20" as="geometry"/>
                </mxCell>
                <mxCell id="Z8cWY3NdeDw0EiwUUbBT-86" value="213" style="text;html=1;strokeColor=none;fillColor=none;align=center;verticalAlign=middle;whiteSpace=wrap;rounded=0;fontSize=33;fontStyle=1" parent="1" vertex="1">
                    <mxGeometry x="-119" y="1072" width="40" height="20" as="geometry"/>
                </mxCell>
                <mxCell id="Z8cWY3NdeDw0EiwUUbBT-87" value="215" style="text;html=1;strokeColor=none;fillColor=none;align=center;verticalAlign=middle;whiteSpace=wrap;rounded=0;fontSize=33;fontStyle=1" parent="1" vertex="1">
                    <mxGeometry x="-133.25" y="1163" width="40" height="20" as="geometry"/>
                </mxCell>
                <mxCell id="Z8cWY3NdeDw0EiwUUbBT-88" value="221" style="text;html=1;strokeColor=none;fillColor=none;align=center;verticalAlign=middle;whiteSpace=wrap;rounded=0;fontSize=33;fontStyle=1" parent="1" vertex="1">
                    <mxGeometry x="-34" y="986" width="40" height="20" as="geometry"/>
                </mxCell>
                <mxCell id="Z8cWY3NdeDw0EiwUUbBT-90" value="220" style="text;html=1;strokeColor=none;fillColor=none;align=center;verticalAlign=middle;whiteSpace=wrap;rounded=0;fontSize=33;fontStyle=1" parent="1" vertex="1">
                    <mxGeometry x="-34" y="1052" width="40" height="20" as="geometry"/>
                </mxCell>
                <mxCell id="Z8cWY3NdeDw0EiwUUbBT-91" value="219" style="text;html=1;strokeColor=none;fillColor=none;align=center;verticalAlign=middle;whiteSpace=wrap;rounded=0;fontSize=33;fontStyle=1" parent="1" vertex="1">
                    <mxGeometry x="-47" y="1127" width="40" height="20" as="geometry"/>
                </mxCell>
                <mxCell id="Z8cWY3NdeDw0EiwUUbBT-92" value="218" style="text;html=1;strokeColor=none;fillColor=none;align=center;verticalAlign=middle;whiteSpace=wrap;rounded=0;fontSize=33;fontStyle=1" parent="1" vertex="1">
                    <mxGeometry x="-60" y="1229" width="40" height="20" as="geometry"/>
                </mxCell>
                <mxCell id="Z8cWY3NdeDw0EiwUUbBT-93" value="217" style="text;html=1;strokeColor=none;fillColor=none;align=center;verticalAlign=middle;whiteSpace=wrap;rounded=0;fontSize=33;fontStyle=1" parent="1" vertex="1">
                    <mxGeometry x="-82" y="1344.5" width="40" height="20" as="geometry"/>
                </mxCell>
                <mxCell id="Z8cWY3NdeDw0EiwUUbBT-95" value="101" style="text;html=1;strokeColor=none;fillColor=none;align=center;verticalAlign=middle;whiteSpace=wrap;rounded=0;fontSize=33;fontStyle=1" parent="1" vertex="1">
                    <mxGeometry x="37.540000000000006" y="1300" width="40" height="20" as="geometry"/>
                </mxCell>
                <mxCell id="Z8cWY3NdeDw0EiwUUbBT-96" value="102" style="text;html=1;strokeColor=none;fillColor=none;align=center;verticalAlign=middle;whiteSpace=wrap;rounded=0;fontSize=33;fontStyle=1" parent="1" vertex="1">
                    <mxGeometry x="160" y="1251" width="40" height="20" as="geometry"/>
                </mxCell>
                <mxCell id="Z8cWY3NdeDw0EiwUUbBT-97" value="112" style="text;html=1;strokeColor=none;fillColor=none;align=center;verticalAlign=middle;whiteSpace=wrap;rounded=0;fontSize=33;fontStyle=1" parent="1" vertex="1">
                    <mxGeometry x="413" y="1372.5" width="40" height="20" as="geometry"/>
                </mxCell>
                <mxCell id="Z8cWY3NdeDw0EiwUUbBT-98" value="103-104" style="text;html=1;strokeColor=none;fillColor=none;align=center;verticalAlign=middle;whiteSpace=wrap;rounded=0;fontSize=33;fontStyle=1" parent="1" vertex="1">
                    <mxGeometry x="245" y="1251" width="140" height="20" as="geometry"/>
                </mxCell>
                <mxCell id="Z8cWY3NdeDw0EiwUUbBT-99" value="105-106" style="text;html=1;strokeColor=none;fillColor=none;align=center;verticalAlign=middle;whiteSpace=wrap;rounded=0;fontSize=33;fontStyle=1" parent="1" vertex="1">
                    <mxGeometry x="364" y="1251" width="220" height="20" as="geometry"/>
                </mxCell>
                <mxCell id="Z8cWY3NdeDw0EiwUUbBT-100" value="109" style="text;html=1;strokeColor=none;fillColor=none;align=center;verticalAlign=middle;whiteSpace=wrap;rounded=0;fontSize=33;fontStyle=1" parent="1" vertex="1">
                    <mxGeometry x="425" y="1163" width="40" height="20" as="geometry"/>
                </mxCell>
                <mxCell id="Z8cWY3NdeDw0EiwUUbBT-101" value="110-111" style="text;html=1;strokeColor=none;fillColor=none;align=center;verticalAlign=middle;whiteSpace=wrap;rounded=0;fontSize=33;fontStyle=1" parent="1" vertex="1">
                    <mxGeometry x="364" y="1080" width="220" height="20" as="geometry"/>
                </mxCell>
                <mxCell id="Z8cWY3NdeDw0EiwUUbBT-102" value="124" style="text;html=1;strokeColor=none;fillColor=none;align=center;verticalAlign=middle;whiteSpace=wrap;rounded=0;fontSize=33;fontStyle=1" parent="1" vertex="1">
                    <mxGeometry x="354" y="1020" width="40" height="20" as="geometry"/>
                </mxCell>
                <mxCell id="Z8cWY3NdeDw0EiwUUbBT-103" value="123" style="text;html=1;strokeColor=none;fillColor=none;align=center;verticalAlign=middle;whiteSpace=wrap;rounded=0;fontSize=33;fontStyle=1" parent="1" vertex="1">
                    <mxGeometry x="434.54" y="1020" width="40" height="20" as="geometry"/>
                </mxCell>
                <mxCell id="Z8cWY3NdeDw0EiwUUbBT-104" value="" style="endArrow=none;html=1;strokeWidth=5;fontSize=33;" parent="1" edge="1">
                    <mxGeometry width="50" height="50" relative="1" as="geometry">
                        <mxPoint x="89" y="1244" as="sourcePoint"/>
                        <mxPoint x="221" y="318.62068965517244" as="targetPoint"/>
                        <Array as="points">
                            <mxPoint x="58" y="1180"/>
                            <mxPoint x="78" y="1140"/>
                            <mxPoint x="60" y="1080"/>
                            <mxPoint x="120" y="1060"/>
                            <mxPoint x="150" y="940"/>
                            <mxPoint x="160" y="880"/>
                            <mxPoint x="170" y="820"/>
                            <mxPoint x="130" y="820"/>
                            <mxPoint x="150" y="640"/>
                        </Array>
                    </mxGeometry>
                </mxCell>
                <mxCell id="Z8cWY3NdeDw0EiwUUbBT-105" value="310" style="text;html=1;strokeColor=none;fillColor=none;align=center;verticalAlign=middle;whiteSpace=wrap;rounded=0;fontSize=33;fontStyle=1" parent="1" vertex="1">
                    <mxGeometry x="137.54000000000002" y="1040" width="40" height="20" as="geometry"/>
                </mxCell>
                <mxCell id="Z8cWY3NdeDw0EiwUUbBT-106" value="319" style="text;html=1;strokeColor=none;fillColor=none;align=center;verticalAlign=middle;whiteSpace=wrap;rounded=0;fontSize=33;fontStyle=1" parent="1" vertex="1">
                    <mxGeometry x="77.54" y="810" width="40" height="20" as="geometry"/>
                </mxCell>
                <mxCell id="Z8cWY3NdeDw0EiwUUbBT-107" value="320" style="text;html=1;strokeColor=none;fillColor=none;align=center;verticalAlign=middle;whiteSpace=wrap;rounded=0;fontSize=33;fontStyle=1" parent="1" vertex="1">
                    <mxGeometry x="83.53999999999999" y="770" width="40" height="20" as="geometry"/>
                </mxCell>
                <mxCell id="Z8cWY3NdeDw0EiwUUbBT-108" value="331" style="text;html=1;strokeColor=none;fillColor=none;align=center;verticalAlign=middle;whiteSpace=wrap;rounded=0;fontSize=33;fontStyle=1" parent="1" vertex="1">
                    <mxGeometry x="151" y="732.5" width="40" height="20" as="geometry"/>
                </mxCell>
                <mxCell id="Z8cWY3NdeDw0EiwUUbBT-109" value="321" style="text;html=1;strokeColor=none;fillColor=none;align=center;verticalAlign=middle;whiteSpace=wrap;rounded=0;fontSize=33;fontStyle=1" parent="1" vertex="1">
                    <mxGeometry x="154" y="690" width="40" height="20" as="geometry"/>
                </mxCell>
                <mxCell id="Z8cWY3NdeDw0EiwUUbBT-110" value="327" style="text;html=1;strokeColor=none;fillColor=none;align=center;verticalAlign=middle;whiteSpace=wrap;rounded=0;fontSize=33;fontStyle=1" parent="1" vertex="1">
                    <mxGeometry x="160" y="650" width="40" height="20" as="geometry"/>
                </mxCell>
                <mxCell id="Z8cWY3NdeDw0EiwUUbBT-111" value="330" style="text;html=1;strokeColor=none;fillColor=none;align=center;verticalAlign=middle;whiteSpace=wrap;rounded=0;fontSize=33;fontStyle=1" parent="1" vertex="1">
                    <mxGeometry x="166" y="610" width="40" height="20" as="geometry"/>
                </mxCell>
                <mxCell id="Z8cWY3NdeDw0EiwUUbBT-112" value="329" style="text;html=1;strokeColor=none;fillColor=none;align=center;verticalAlign=middle;whiteSpace=wrap;rounded=0;fontSize=33;fontStyle=1" parent="1" vertex="1">
                    <mxGeometry x="177.54" y="565" width="40" height="20" as="geometry"/>
                </mxCell>
                <mxCell id="Z8cWY3NdeDw0EiwUUbBT-113" value="322" style="text;html=1;strokeColor=none;fillColor=none;align=center;verticalAlign=middle;whiteSpace=wrap;rounded=0;fontSize=33;fontStyle=1" parent="1" vertex="1">
                    <mxGeometry x="123.54" y="510" width="40" height="20" as="geometry"/>
                </mxCell>
                <mxCell id="Z8cWY3NdeDw0EiwUUbBT-114" value="323" style="text;html=1;strokeColor=none;fillColor=none;align=center;verticalAlign=middle;whiteSpace=wrap;rounded=0;fontSize=33;fontStyle=1" parent="1" vertex="1">
                    <mxGeometry x="131" y="461" width="40" height="20" as="geometry"/>
                </mxCell>
                <mxCell id="Z8cWY3NdeDw0EiwUUbBT-115" value="324" style="text;html=1;strokeColor=none;fillColor=none;align=center;verticalAlign=middle;whiteSpace=wrap;rounded=0;fontSize=33;fontStyle=1" parent="1" vertex="1">
                    <mxGeometry x="200" y="490" width="40" height="20" as="geometry"/>
                </mxCell>
                <mxCell id="Z8cWY3NdeDw0EiwUUbBT-116" value="325" style="text;html=1;strokeColor=none;fillColor=none;align=center;verticalAlign=middle;whiteSpace=wrap;rounded=0;fontSize=33;fontStyle=1" parent="1" vertex="1">
                    <mxGeometry x="214" y="423.5" width="40" height="20" as="geometry"/>
                </mxCell>
                <mxCell id="Z8cWY3NdeDw0EiwUUbBT-117" value="328" style="text;html=1;strokeColor=none;fillColor=none;align=center;verticalAlign=middle;whiteSpace=wrap;rounded=0;fontSize=33;fontStyle=1" parent="1" vertex="1">
                    <mxGeometry x="228" y="370" width="40" height="20" as="geometry"/>
                </mxCell>
                <mxCell id="Z8cWY3NdeDw0EiwUUbBT-118" value="326" style="text;html=1;strokeColor=none;fillColor=none;align=center;verticalAlign=middle;whiteSpace=wrap;rounded=0;fontSize=33;fontStyle=1" parent="1" vertex="1">
                    <mxGeometry x="228" y="340" width="40" height="20" as="geometry"/>
                </mxCell>
                <mxCell id="Z8cWY3NdeDw0EiwUUbBT-119" value="117" style="text;html=1;strokeColor=none;fillColor=none;align=center;verticalAlign=middle;whiteSpace=wrap;rounded=0;fontSize=33;fontStyle=1" parent="1" vertex="1">
                    <mxGeometry x="440" y="955" width="40" height="20" as="geometry"/>
                </mxCell>
                <mxCell id="Z8cWY3NdeDw0EiwUUbBT-121" value="119" style="text;html=1;strokeColor=none;fillColor=none;align=center;verticalAlign=middle;whiteSpace=wrap;rounded=0;fontSize=33;fontStyle=1" parent="1" vertex="1">
                    <mxGeometry x="463" y="830" width="40" height="20" as="geometry"/>
                </mxCell>
                <mxCell id="Z8cWY3NdeDw0EiwUUbBT-123" value="126" style="text;html=1;strokeColor=none;fillColor=none;align=center;verticalAlign=middle;whiteSpace=wrap;rounded=0;fontSize=33;fontStyle=1" parent="1" vertex="1">
                    <mxGeometry x="520" y="560" width="40" height="20" as="geometry"/>
                </mxCell>
                <mxCell id="Z8cWY3NdeDw0EiwUUbBT-124" value="125" style="text;html=1;strokeColor=none;fillColor=none;align=center;verticalAlign=middle;whiteSpace=wrap;rounded=0;fontSize=33;fontStyle=1" parent="1" vertex="1">
                    <mxGeometry x="500" y="600" width="40" height="20" as="geometry"/>
                </mxCell>
                <mxCell id="Z8cWY3NdeDw0EiwUUbBT-125" value="127" style="text;html=1;strokeColor=none;fillColor=none;align=center;verticalAlign=middle;whiteSpace=wrap;rounded=0;fontSize=33;fontStyle=1" parent="1" vertex="1">
                    <mxGeometry x="540" y="500" width="40" height="20" as="geometry"/>
                </mxCell>
                <mxCell id="Z8cWY3NdeDw0EiwUUbBT-126" value="128" style="text;html=1;strokeColor=none;fillColor=none;align=center;verticalAlign=middle;whiteSpace=wrap;rounded=0;fontSize=33;fontStyle=1" parent="1" vertex="1">
                    <mxGeometry x="584" y="380" width="40" height="20" as="geometry"/>
                </mxCell>
                <mxCell id="Z8cWY3NdeDw0EiwUUbBT-127" value="129" style="text;html=1;strokeColor=none;fillColor=none;align=center;verticalAlign=middle;whiteSpace=wrap;rounded=0;fontSize=33;fontStyle=1" parent="1" vertex="1">
                    <mxGeometry x="603" y="320" width="40" height="20" as="geometry"/>
                </mxCell>
                <mxCell id="Z8cWY3NdeDw0EiwUUbBT-128" value="131" style="text;html=1;strokeColor=none;fillColor=none;align=center;verticalAlign=middle;whiteSpace=wrap;rounded=0;fontSize=33;fontStyle=1" parent="1" vertex="1">
                    <mxGeometry x="603" y="290" width="40" height="20" as="geometry"/>
                </mxCell>
                <mxCell id="Z8cWY3NdeDw0EiwUUbBT-129" value="130" style="text;html=1;strokeColor=none;fillColor=none;align=center;verticalAlign=middle;whiteSpace=wrap;rounded=0;fontSize=33;fontStyle=1" parent="1" vertex="1">
                    <mxGeometry x="731" y="248" width="40" height="20" as="geometry"/>
                </mxCell>
                <mxCell id="Z8cWY3NdeDw0EiwUUbBT-130" value="132" style="text;html=1;strokeColor=none;fillColor=none;align=center;verticalAlign=middle;whiteSpace=wrap;rounded=0;fontSize=33;fontStyle=1" parent="1" vertex="1">
                    <mxGeometry x="624" y="208" width="40" height="20" as="geometry"/>
                </mxCell>
                <mxCell id="Z8cWY3NdeDw0EiwUUbBT-131" value="" style="endArrow=none;html=1;strokeWidth=5;fontSize=33;" parent="1" edge="1">
                    <mxGeometry width="50" height="50" relative="1" as="geometry">
                        <mxPoint x="472" y="651" as="sourcePoint"/>
                        <mxPoint x="900" y="597" as="targetPoint"/>
                        <Array as="points">
                            <mxPoint x="660" y="660"/>
                            <mxPoint x="690" y="600"/>
                        </Array>
                    </mxGeometry>
                </mxCell>
                <mxCell id="Z8cWY3NdeDw0EiwUUbBT-132" value="151" style="text;html=1;strokeColor=none;fillColor=none;align=center;verticalAlign=middle;whiteSpace=wrap;rounded=0;fontSize=33;fontStyle=1" parent="1" vertex="1">
                    <mxGeometry x="570" y="628" width="40" height="20" as="geometry"/>
                </mxCell>
                <mxCell id="Z8cWY3NdeDw0EiwUUbBT-133" value="152" style="text;html=1;strokeColor=none;fillColor=none;align=center;verticalAlign=middle;whiteSpace=wrap;rounded=0;fontSize=33;fontStyle=1" parent="1" vertex="1">
                    <mxGeometry x="560" y="670" width="40" height="20" as="geometry"/>
                </mxCell>
                <mxCell id="Z8cWY3NdeDw0EiwUUbBT-134" value="153" style="text;html=1;strokeColor=none;fillColor=none;align=center;verticalAlign=middle;whiteSpace=wrap;rounded=0;fontSize=33;fontStyle=1" parent="1" vertex="1">
                    <mxGeometry x="643" y="670" width="40" height="20" as="geometry"/>
                </mxCell>
                <mxCell id="Z8cWY3NdeDw0EiwUUbBT-135" value="154" style="text;html=1;strokeColor=none;fillColor=none;align=center;verticalAlign=middle;whiteSpace=wrap;rounded=0;fontSize=33;fontStyle=1" parent="1" vertex="1">
                    <mxGeometry x="680" y="572" width="40" height="20" as="geometry"/>
                </mxCell>
                <mxCell id="Z8cWY3NdeDw0EiwUUbBT-136" value="155" style="text;html=1;strokeColor=none;fillColor=none;align=center;verticalAlign=middle;whiteSpace=wrap;rounded=0;fontSize=33;fontStyle=1" parent="1" vertex="1">
                    <mxGeometry x="760" y="608" width="40" height="20" as="geometry"/>
                </mxCell>
                <mxCell id="Z8cWY3NdeDw0EiwUUbBT-137" value="" style="endArrow=none;html=1;strokeWidth=5;fontSize=33;" parent="1" edge="1">
                    <mxGeometry width="50" height="50" relative="1" as="geometry">
                        <mxPoint x="880" y="1171" as="sourcePoint"/>
                        <mxPoint x="920" y="60" as="targetPoint"/>
                    </mxGeometry>
                </mxCell>
                <mxCell id="Z8cWY3NdeDw0EiwUUbBT-138" value="141" style="text;html=1;strokeColor=none;fillColor=none;align=center;verticalAlign=middle;whiteSpace=wrap;rounded=0;fontSize=33;fontStyle=1" parent="1" vertex="1">
                    <mxGeometry x="860.54" y="116" width="40" height="20" as="geometry"/>
                </mxCell>
                <mxCell id="Z8cWY3NdeDw0EiwUUbBT-139" value="143" style="text;html=1;strokeColor=none;fillColor=none;align=center;verticalAlign=middle;whiteSpace=wrap;rounded=0;fontSize=33;fontStyle=1" parent="1" vertex="1">
                    <mxGeometry x="860" y="228" width="40" height="20" as="geometry"/>
                </mxCell>
                <mxCell id="Z8cWY3NdeDw0EiwUUbBT-140" value="145" style="text;html=1;strokeColor=none;fillColor=none;align=center;verticalAlign=middle;whiteSpace=wrap;rounded=0;fontSize=33;fontStyle=1" parent="1" vertex="1">
                    <mxGeometry x="858" y="301" width="40" height="20" as="geometry"/>
                </mxCell>
                <mxCell id="Z8cWY3NdeDw0EiwUUbBT-141" value="142" style="text;html=1;strokeColor=none;fillColor=none;align=center;verticalAlign=middle;whiteSpace=wrap;rounded=0;fontSize=33;fontStyle=1" parent="1" vertex="1">
                    <mxGeometry x="858" y="340" width="40" height="20" as="geometry"/>
                </mxCell>
                <mxCell id="Z8cWY3NdeDw0EiwUUbBT-142" value="144" style="text;html=1;strokeColor=none;fillColor=none;align=center;verticalAlign=middle;whiteSpace=wrap;rounded=0;fontSize=33;fontStyle=1" parent="1" vertex="1">
                    <mxGeometry x="918" y="403.5" width="40" height="20" as="geometry"/>
                </mxCell>
                <mxCell id="Z8cWY3NdeDw0EiwUUbBT-143" value="146" style="text;html=1;strokeColor=none;fillColor=none;align=center;verticalAlign=middle;whiteSpace=wrap;rounded=0;fontSize=33;fontStyle=1" parent="1" vertex="1">
                    <mxGeometry x="918" y="470" width="40" height="20" as="geometry"/>
                </mxCell>
                <mxCell id="Z8cWY3NdeDw0EiwUUbBT-144" value="147" style="text;html=1;strokeColor=none;fillColor=none;align=center;verticalAlign=middle;whiteSpace=wrap;rounded=0;fontSize=33;fontStyle=1" parent="1" vertex="1">
                    <mxGeometry x="731" y="457" width="40" height="20" as="geometry"/>
                </mxCell>
                <mxCell id="Z8cWY3NdeDw0EiwUUbBT-145" value="148-149" style="text;html=1;strokeColor=none;fillColor=none;align=center;verticalAlign=middle;whiteSpace=wrap;rounded=0;fontSize=33;fontStyle=1" parent="1" vertex="1">
                    <mxGeometry x="680" y="403.5" width="160" height="20" as="geometry"/>
                </mxCell>
                <mxCell id="Z8cWY3NdeDw0EiwUUbBT-146" value="172" style="text;html=1;strokeColor=none;fillColor=none;align=center;verticalAlign=middle;whiteSpace=wrap;rounded=0;fontSize=33;fontStyle=1" parent="1" vertex="1">
                    <mxGeometry x="830" y="1030" width="40" height="20" as="geometry"/>
                </mxCell>
                <mxCell id="Z8cWY3NdeDw0EiwUUbBT-147" value="171" style="text;html=1;strokeColor=none;fillColor=none;align=center;verticalAlign=middle;whiteSpace=wrap;rounded=0;fontSize=33;fontStyle=1" parent="1" vertex="1">
                    <mxGeometry x="830" y="1000" width="40" height="20" as="geometry"/>
                </mxCell>
                <mxCell id="Z8cWY3NdeDw0EiwUUbBT-148" value="" style="endArrow=none;html=1;strokeWidth=5;fontSize=33;" parent="1" edge="1">
                    <mxGeometry width="50" height="50" relative="1" as="geometry">
                        <mxPoint x="897" y="732" as="sourcePoint"/>
                        <mxPoint x="1461" y="327" as="targetPoint"/>
                        <Array as="points">
                            <mxPoint x="1080" y="730"/>
                            <mxPoint x="1180" y="730"/>
                            <mxPoint x="1220" y="720"/>
                            <mxPoint x="1460" y="610"/>
                        </Array>
                    </mxGeometry>
                </mxCell>
                <mxCell id="Z8cWY3NdeDw0EiwUUbBT-149" value="" style="endArrow=none;html=1;strokeWidth=5;fontSize=33;" parent="1" edge="1">
                    <mxGeometry width="50" height="50" relative="1" as="geometry">
                        <mxPoint x="1460" y="497" as="sourcePoint"/>
                        <mxPoint x="1562" y="494" as="targetPoint"/>
                    </mxGeometry>
                </mxCell>
                <mxCell id="Z8cWY3NdeDw0EiwUUbBT-150" value="161" style="text;html=1;strokeColor=none;fillColor=none;align=center;verticalAlign=middle;whiteSpace=wrap;rounded=0;fontSize=33;fontStyle=1" parent="1" vertex="1">
                    <mxGeometry x="1570" y="481" width="40" height="20" as="geometry"/>
                </mxCell>
                <mxCell id="Z8cWY3NdeDw0EiwUUbBT-151" value="165" style="text;html=1;strokeColor=none;fillColor=none;align=center;verticalAlign=middle;whiteSpace=wrap;rounded=0;fontSize=33;fontStyle=1" parent="1" vertex="1">
                    <mxGeometry x="1320" y="683.5" width="40" height="20" as="geometry"/>
                </mxCell>
                <mxCell id="Z8cWY3NdeDw0EiwUUbBT-153" value="162" style="text;html=1;strokeColor=none;fillColor=none;align=center;verticalAlign=middle;whiteSpace=wrap;rounded=0;fontSize=33;fontStyle=1" parent="1" vertex="1">
                    <mxGeometry x="1010" y="696" width="40" height="20" as="geometry"/>
                </mxCell>
                <mxCell id="Z8cWY3NdeDw0EiwUUbBT-154" value="163-164" style="text;html=1;strokeColor=none;fillColor=none;align=center;verticalAlign=middle;whiteSpace=wrap;rounded=0;fontSize=33;fontStyle=1" parent="1" vertex="1">
                    <mxGeometry x="1060" y="690" width="200" height="20" as="geometry"/>
                </mxCell>
                <mxCell id="Z8cWY3NdeDw0EiwUUbBT-155" value="160" style="text;html=1;strokeColor=none;fillColor=none;align=center;verticalAlign=middle;whiteSpace=wrap;rounded=0;fontSize=33;fontStyle=1" parent="1" vertex="1">
                    <mxGeometry x="1158" y="744.5" width="40" height="20" as="geometry"/>
                </mxCell>
                <mxCell id="Z8cWY3NdeDw0EiwUUbBT-157" value="" style="endArrow=none;html=1;strokeWidth=5;fontSize=33;fillColor=#dae8fc;strokeColor=#6c8ebf;" parent="1" edge="1">
                    <mxGeometry width="50" height="50" relative="1" as="geometry">
                        <mxPoint x="750" y="2550" as="sourcePoint"/>
                        <mxPoint x="40" y="1740" as="targetPoint"/>
                        <Array as="points">
                            <mxPoint x="620" y="2380"/>
                            <mxPoint x="540" y="2230"/>
                            <mxPoint x="490" y="2150"/>
                            <mxPoint x="450" y="2100"/>
                            <mxPoint x="360" y="2020"/>
                            <mxPoint x="210" y="1920"/>
                        </Array>
                    </mxGeometry>
                </mxCell>
                <mxCell id="Z8cWY3NdeDw0EiwUUbBT-158" value="" style="endArrow=none;html=1;strokeWidth=5;fontSize=33;fillColor=#dae8fc;strokeColor=#6c8ebf;" parent="1" edge="1">
                    <mxGeometry width="50" height="50" relative="1" as="geometry">
                        <mxPoint x="740" y="2560" as="sourcePoint"/>
                        <mxPoint x="30" y="1750" as="targetPoint"/>
                        <Array as="points">
                            <mxPoint x="640" y="2430"/>
                            <mxPoint x="590" y="2340"/>
                            <mxPoint x="520" y="2220"/>
                            <mxPoint x="450" y="2110"/>
                            <mxPoint x="340" y="2020"/>
                            <mxPoint x="190" y="1920"/>
                        </Array>
                    </mxGeometry>
                </mxCell>
                <mxCell id="Z8cWY3NdeDw0EiwUUbBT-159" value="" style="endArrow=none;html=1;strokeWidth=5;fontSize=33;" parent="1" edge="1">
                    <mxGeometry width="50" height="50" relative="1" as="geometry">
                        <mxPoint x="51" y="2520" as="sourcePoint"/>
                        <mxPoint x="211" y="1850" as="targetPoint"/>
                        <Array as="points">
                            <mxPoint x="71" y="2450"/>
                            <mxPoint x="81" y="2390"/>
                            <mxPoint x="31" y="2320"/>
                            <mxPoint x="11" y="2240"/>
                            <mxPoint x="11" y="2120"/>
                            <mxPoint x="-19" y="2100"/>
                            <mxPoint x="-79" y="1960"/>
                            <mxPoint x="-9" y="1970"/>
                            <mxPoint x="61" y="2000"/>
                            <mxPoint x="151" y="1950"/>
                            <mxPoint x="121" y="1900"/>
                        </Array>
                    </mxGeometry>
                </mxCell>
                <mxCell id="Z8cWY3NdeDw0EiwUUbBT-160" value="" style="endArrow=none;html=1;strokeWidth=5;fontSize=33;" parent="1" edge="1">
                    <mxGeometry width="50" height="50" relative="1" as="geometry">
                        <mxPoint x="535" y="2500" as="sourcePoint"/>
                        <mxPoint x="-210" y="2480" as="targetPoint"/>
                        <Array as="points">
                            <mxPoint x="340" y="2520"/>
                            <mxPoint x="220" y="2530"/>
                            <mxPoint x="40" y="2520"/>
                            <mxPoint x="-50" y="2500"/>
                            <mxPoint x="-100" y="2440"/>
                            <mxPoint x="-180" y="2380"/>
                            <mxPoint x="-210" y="2370"/>
                            <mxPoint x="-250" y="2370"/>
                            <mxPoint x="-260" y="2390"/>
                            <mxPoint x="-260" y="2410"/>
                        </Array>
                    </mxGeometry>
                </mxCell>
                <mxCell id="Z8cWY3NdeDw0EiwUUbBT-161" value="" style="endArrow=none;html=1;strokeWidth=5;fontSize=33;" parent="1" edge="1">
                    <mxGeometry width="50" height="50" relative="1" as="geometry">
                        <mxPoint x="610" y="3286.6666666666665" as="sourcePoint"/>
                        <mxPoint x="330" y="2520" as="targetPoint"/>
                        <Array as="points">
                            <mxPoint x="580" y="3140"/>
                            <mxPoint x="580" y="3090"/>
                            <mxPoint x="590" y="2950"/>
                            <mxPoint x="560" y="2930"/>
                            <mxPoint x="470" y="2920"/>
                        </Array>
                    </mxGeometry>
                </mxCell>
                <mxCell id="Z8cWY3NdeDw0EiwUUbBT-162" value="" style="endArrow=none;html=1;strokeWidth=5;fontSize=33;" parent="1" edge="1">
                    <mxGeometry width="50" height="50" relative="1" as="geometry">
                        <mxPoint x="580" y="3090" as="sourcePoint"/>
                        <mxPoint x="800" y="3080" as="targetPoint"/>
                        <Array as="points">
                            <mxPoint x="710" y="3090"/>
                        </Array>
                    </mxGeometry>
                </mxCell>
                <mxCell id="Z8cWY3NdeDw0EiwUUbBT-163" value="" style="endArrow=none;html=1;strokeWidth=5;fontSize=33;" parent="1" edge="1">
                    <mxGeometry width="50" height="50" relative="1" as="geometry">
                        <mxPoint x="840" y="3271.6666666666665" as="sourcePoint"/>
                        <mxPoint x="780" y="2930" as="targetPoint"/>
                        <Array as="points">
                            <mxPoint x="800" y="3080"/>
                        </Array>
                    </mxGeometry>
                </mxCell>
                <mxCell id="Z8cWY3NdeDw0EiwUUbBT-164" value="20" style="text;html=1;strokeColor=none;fillColor=none;align=center;verticalAlign=middle;whiteSpace=wrap;rounded=0;fontSize=33;fontStyle=1" parent="1" vertex="1">
                    <mxGeometry x="858" y="3250" width="40" height="20" as="geometry"/>
                </mxCell>
                <mxCell id="Z8cWY3NdeDw0EiwUUbBT-165" value="19" style="text;html=1;strokeColor=none;fillColor=none;align=center;verticalAlign=middle;whiteSpace=wrap;rounded=0;fontSize=33;fontStyle=1" parent="1" vertex="1">
                    <mxGeometry x="830" y="3160" width="40" height="20" as="geometry"/>
                </mxCell>
                <mxCell id="Z8cWY3NdeDw0EiwUUbBT-167" value="18" style="text;html=1;strokeColor=none;fillColor=none;align=center;verticalAlign=middle;whiteSpace=wrap;rounded=0;fontSize=33;fontStyle=1" parent="1" vertex="1">
                    <mxGeometry x="810" y="3059" width="40" height="20" as="geometry"/>
                </mxCell>
                <mxCell id="Z8cWY3NdeDw0EiwUUbBT-169" value="14" style="text;html=1;strokeColor=none;fillColor=none;align=center;verticalAlign=middle;whiteSpace=wrap;rounded=0;fontSize=33;fontStyle=1" parent="1" vertex="1">
                    <mxGeometry x="603" y="3200" width="40" height="20" as="geometry"/>
                </mxCell>
                <mxCell id="Z8cWY3NdeDw0EiwUUbBT-170" value="15" style="text;html=1;strokeColor=none;fillColor=none;align=center;verticalAlign=middle;whiteSpace=wrap;rounded=0;fontSize=33;fontStyle=0;fontColor=#FF0000;" parent="1" vertex="1">
                    <mxGeometry x="610" y="3250" width="40" height="20" as="geometry"/>
                </mxCell>
                <mxCell id="Z8cWY3NdeDw0EiwUUbBT-171" value="17" style="text;html=1;strokeColor=none;fillColor=none;align=center;verticalAlign=middle;whiteSpace=wrap;rounded=0;fontSize=33;fontStyle=1" parent="1" vertex="1">
                    <mxGeometry x="800" y="2973" width="40" height="20" as="geometry"/>
                </mxCell>
                <mxCell id="Z8cWY3NdeDw0EiwUUbBT-172" value="16" style="text;html=1;strokeColor=none;fillColor=none;align=center;verticalAlign=middle;whiteSpace=wrap;rounded=0;fontSize=33;fontStyle=1" parent="1" vertex="1">
                    <mxGeometry x="787" y="2913" width="40" height="20" as="geometry"/>
                </mxCell>
                <mxCell id="Z8cWY3NdeDw0EiwUUbBT-173" value="13" style="text;html=1;strokeColor=none;fillColor=none;align=center;verticalAlign=middle;whiteSpace=wrap;rounded=0;fontSize=33;fontStyle=1" parent="1" vertex="1">
                    <mxGeometry x="474.53999999999996" y="2940" width="40" height="20" as="geometry"/>
                </mxCell>
                <mxCell id="Z8cWY3NdeDw0EiwUUbBT-174" value="&lt;b&gt;21&lt;/b&gt;" style="text;html=1;strokeColor=none;fillColor=none;align=center;verticalAlign=middle;whiteSpace=wrap;rounded=0;fontSize=33;" parent="1" vertex="1">
                    <mxGeometry x="430" y="2740" width="40" height="20" as="geometry"/>
                </mxCell>
                <mxCell id="Z8cWY3NdeDw0EiwUUbBT-175" value="11" style="text;html=1;strokeColor=none;fillColor=none;align=center;verticalAlign=middle;whiteSpace=wrap;rounded=0;fontSize=33;fontStyle=1" parent="1" vertex="1">
                    <mxGeometry x="385" y="2630" width="40" height="20" as="geometry"/>
                </mxCell>
                <mxCell id="Z8cWY3NdeDw0EiwUUbBT-176" value="10" style="text;html=1;strokeColor=none;fillColor=none;align=center;verticalAlign=middle;whiteSpace=wrap;rounded=0;fontSize=33;fontStyle=1" parent="1" vertex="1">
                    <mxGeometry x="366" y="2580" width="40" height="20" as="geometry"/>
                </mxCell>
                <mxCell id="Z8cWY3NdeDw0EiwUUbBT-177" value="9" style="text;html=1;strokeColor=none;fillColor=none;align=center;verticalAlign=middle;whiteSpace=wrap;rounded=0;fontSize=33;fontStyle=1" parent="1" vertex="1">
                    <mxGeometry x="228" y="2499.5" width="40" height="20" as="geometry"/>
                </mxCell>
                <mxCell id="Z8cWY3NdeDw0EiwUUbBT-178" value="1" style="text;html=1;strokeColor=none;fillColor=none;align=center;verticalAlign=middle;whiteSpace=wrap;rounded=0;fontSize=33;fontStyle=1" parent="1" vertex="1">
                    <mxGeometry x="74.53999999999999" y="2360" width="40" height="20" as="geometry"/>
                </mxCell>
                <mxCell id="Z8cWY3NdeDw0EiwUUbBT-179" value="2" style="text;html=1;strokeColor=none;fillColor=none;align=center;verticalAlign=middle;whiteSpace=wrap;rounded=0;fontSize=33;fontStyle=1" parent="1" vertex="1">
                    <mxGeometry x="16" y="2222" width="40" height="20" as="geometry"/>
                </mxCell>
                <mxCell id="Z8cWY3NdeDw0EiwUUbBT-180" value="4" style="text;html=1;strokeColor=none;fillColor=none;align=center;verticalAlign=middle;whiteSpace=wrap;rounded=0;fontSize=33;fontStyle=1" parent="1" vertex="1">
                    <mxGeometry x="-50" y="2027" width="40" height="20" as="geometry"/>
                </mxCell>
                <mxCell id="Z8cWY3NdeDw0EiwUUbBT-181" value="7" style="text;html=1;strokeColor=none;fillColor=none;align=center;verticalAlign=middle;whiteSpace=wrap;rounded=0;fontSize=33;fontStyle=0;fontColor=#FF0000;" parent="1" vertex="1">
                    <mxGeometry x="-18" y="2075" width="40" height="20" as="geometry"/>
                </mxCell>
                <mxCell id="Z8cWY3NdeDw0EiwUUbBT-183" value="5" style="text;html=1;strokeColor=none;fillColor=none;align=center;verticalAlign=middle;whiteSpace=wrap;rounded=0;fontSize=33;fontStyle=1" parent="1" vertex="1">
                    <mxGeometry x="-113" y="1940" width="40" height="20" as="geometry"/>
                </mxCell>
                <mxCell id="Z8cWY3NdeDw0EiwUUbBT-184" value="6" style="text;html=1;strokeColor=none;fillColor=none;align=center;verticalAlign=middle;whiteSpace=wrap;rounded=0;fontSize=33;fontStyle=1" parent="1" vertex="1">
                    <mxGeometry x="148" y="1950" width="40" height="20" as="geometry"/>
                </mxCell>
                <mxCell id="Z8cWY3NdeDw0EiwUUbBT-185" value="7" style="text;html=1;strokeColor=none;fillColor=none;align=center;verticalAlign=middle;whiteSpace=wrap;rounded=0;fontSize=33;fontStyle=1" parent="1" vertex="1">
                    <mxGeometry x="177.54000000000002" y="1820" width="40" height="20" as="geometry"/>
                </mxCell>
                <mxCell id="Z8cWY3NdeDw0EiwUUbBT-186" value="8" style="text;html=1;strokeColor=none;fillColor=none;align=center;verticalAlign=middle;whiteSpace=wrap;rounded=0;fontSize=33;fontStyle=0;fontColor=#FF0000;" parent="1" vertex="1">
                    <mxGeometry x="154" y="2493" width="40" height="20" as="geometry"/>
                </mxCell>
                <mxCell id="poMK8THUuft9oqfRt51j-1" value="" style="endArrow=none;html=1;strokeWidth=6;" parent="1" edge="1">
                    <mxGeometry width="50" height="50" relative="1" as="geometry">
                        <mxPoint x="749" y="440" as="sourcePoint"/>
                        <mxPoint x="907" y="440" as="targetPoint"/>
                    </mxGeometry>
                </mxCell>
                <mxCell id="2" value="&lt;b style=&quot;font-size: 27px&quot;&gt;Minipantano&lt;/b&gt;" style="rounded=1;whiteSpace=wrap;html=1;strokeWidth=2;fontSize=27;fillColor=#ffff88;strokeColor=#36393d;" vertex="1" parent="1">
                    <mxGeometry x="1490" y="403.5" width="180" height="50" as="geometry"/>
                </mxCell>
                <mxCell id="3" value="" style="verticalLabelPosition=bottom;align=center;html=1;verticalAlign=top;pointerEvents=1;dashed=0;shape=mxgraph.pid2valves.valve;valveType=gate;defState=closed;strokeWidth=1;fillColor=none;fontSize=17;rotation=-90;strokeColor=#0000FF;" vertex="1" parent="1">
                    <mxGeometry x="903.54" y="722" width="37.54" height="22.5" as="geometry"/>
                </mxCell>
                <mxCell id="4" value="&lt;b style=&quot;font-size: 27px&quot;&gt;Loma Balsa de los Piedras&lt;/b&gt;" style="rounded=1;whiteSpace=wrap;html=1;strokeWidth=2;fontSize=27;fillColor=#ffff88;strokeColor=#36393d;" vertex="1" parent="1">
                    <mxGeometry x="600" y="88" width="220" height="76" as="geometry"/>
                </mxCell>
                <mxCell id="5" value="&lt;b style=&quot;font-size: 27px&quot;&gt;Loma del Pajar&lt;/b&gt;" style="rounded=1;whiteSpace=wrap;html=1;strokeWidth=2;fontSize=27;fillColor=#ffff88;strokeColor=#36393d;" vertex="1" parent="1">
                    <mxGeometry x="200" y="218" width="142" height="72" as="geometry"/>
                </mxCell>
                <mxCell id="Z8cWY3NdeDw0EiwUUbBT-120" value="118" style="text;html=1;strokeColor=none;fillColor=none;align=center;verticalAlign=middle;whiteSpace=wrap;rounded=0;fontSize=33;fontStyle=1" parent="1" vertex="1">
                    <mxGeometry x="453" y="920" width="40" height="20" as="geometry"/>
                </mxCell>
                <mxCell id="10" value="&lt;b style=&quot;font-size: 27px&quot;&gt;Rambla Motocros&lt;/b&gt;" style="rounded=1;whiteSpace=wrap;html=1;strokeWidth=2;fontSize=27;fillColor=#ffff88;strokeColor=#36393d;" vertex="1" parent="1">
                    <mxGeometry x="237.5" y="2100" width="155" height="70" as="geometry"/>
                </mxCell>
                <mxCell id="11" value="" style="verticalLabelPosition=bottom;align=center;html=1;verticalAlign=top;pointerEvents=1;dashed=0;shape=mxgraph.pid2valves.valve;valveType=gate;defState=closed;strokeWidth=1;fillColor=none;fontSize=17;rotation=-90;strokeColor=#0000FF;" vertex="1" parent="1">
                    <mxGeometry x="100" y="1350" width="37.54" height="22.5" as="geometry"/>
                </mxCell>
                <mxCell id="12" value="" style="verticalLabelPosition=bottom;align=center;html=1;verticalAlign=top;pointerEvents=1;dashed=0;shape=mxgraph.pid2valves.valve;valveType=gate;defState=closed;strokeWidth=1;fillColor=none;fontSize=17;rotation=-90;strokeColor=#0000FF;" vertex="1" parent="1">
                    <mxGeometry x="93.46" y="1229" width="37.54" height="22.5" as="geometry"/>
                </mxCell>
                <mxCell id="13" value="" style="verticalLabelPosition=bottom;align=center;outlineConnect=0;dashed=0;html=1;verticalAlign=top;shape=mxgraph.pid.flow_sensors.rotameter;strokeWidth=7;fontSize=17;rotation=-90;fontColor=#009900;strokeColor=#009900;fillColor=none;" vertex="1" parent="1">
                    <mxGeometry x="-133.25" y="1570" width="30" height="22" as="geometry"/>
                </mxCell>
                <mxCell id="17" value="&lt;b style=&quot;font-size: 27px&quot;&gt;Balsa&lt;/b&gt;" style="rounded=1;whiteSpace=wrap;html=1;strokeWidth=2;fontSize=27;fillColor=#ffff88;strokeColor=#36393d;" vertex="1" parent="1">
                    <mxGeometry x="-500" y="1252" width="160" height="52" as="geometry"/>
                </mxCell>
                <mxCell id="18" value="&lt;b style=&quot;font-size: 27px&quot;&gt;Llano los Militares&lt;/b&gt;" style="rounded=1;whiteSpace=wrap;html=1;strokeWidth=2;fontSize=27;fillColor=#ffff88;strokeColor=#36393d;" vertex="1" parent="1">
                    <mxGeometry x="-693" y="900" width="140" height="60" as="geometry"/>
                </mxCell>
                <mxCell id="19" value="&lt;b style=&quot;font-size: 27px&quot;&gt;Jardines de Viator&lt;/b&gt;" style="rounded=1;whiteSpace=wrap;html=1;strokeWidth=2;fontSize=27;fillColor=#ffff88;strokeColor=#36393d;" vertex="1" parent="1">
                    <mxGeometry x="-245.25" y="638" width="142" height="72" as="geometry"/>
                </mxCell>
                <mxCell id="20" value="&lt;b style=&quot;font-size: 27px&quot;&gt;Blanes&lt;/b&gt;" style="rounded=1;whiteSpace=wrap;html=1;strokeWidth=2;fontSize=27;fillColor=#ffff88;strokeColor=#36393d;" vertex="1" parent="1">
                    <mxGeometry x="-257.46" y="1980" width="110" height="40" as="geometry"/>
                </mxCell>
                <mxCell id="21" value="&lt;b style=&quot;font-size: 27px&quot;&gt;Casur&lt;/b&gt;" style="rounded=1;whiteSpace=wrap;html=1;strokeWidth=2;fontSize=27;fillColor=#ffff88;strokeColor=#36393d;" vertex="1" parent="1">
                    <mxGeometry x="155" y="2410" width="90" height="42" as="geometry"/>
                </mxCell>
                <mxCell id="22" value="" style="verticalLabelPosition=bottom;align=center;html=1;verticalAlign=top;pointerEvents=1;dashed=0;shape=mxgraph.pid2valves.valve;valveType=gate;defState=closed;strokeWidth=1;fillColor=none;fontSize=17;rotation=15;strokeColor=#0000FF;" vertex="1" parent="1">
                    <mxGeometry x="40" y="2477" width="37.54" height="22.5" as="geometry"/>
                </mxCell>
                <mxCell id="23" value="" style="verticalLabelPosition=bottom;align=center;html=1;verticalAlign=top;pointerEvents=1;dashed=0;shape=mxgraph.pid2valves.valve;valveType=gate;defState=closed;strokeWidth=1;fillColor=none;fontSize=17;rotation=-90;strokeColor=#0000FF;" vertex="1" parent="1">
                    <mxGeometry x="70" y="2510" width="37.54" height="22.5" as="geometry"/>
                </mxCell>
                <mxCell id="24" value="" style="verticalLabelPosition=bottom;align=center;html=1;verticalAlign=top;pointerEvents=1;dashed=0;shape=mxgraph.pid2valves.valve;valveType=gate;defState=closed;strokeWidth=1;fillColor=none;fontSize=17;rotation=-15;strokeColor=#0000FF;" vertex="1" parent="1">
                    <mxGeometry x="320" y="2532.5" width="37.54" height="22.5" as="geometry"/>
                </mxCell>
            </root>
        </mxGraphModel>
    </diagram>
</mxfile>